<svg width="33" height="33" viewBox="0 0 33 33" fill="none" xmlns="http://www.w3.org/2000/svg">
<rect x="0.683594" y="0.791016" width="32" height="32" rx="16" fill="white"/>
<path d="M8.01831 12.9758C7.49419 13.3492 7.187 14.1398 7.76607 15.0852C8.34513 16.0305 16.6181 22.4115 16.9214 22.5887C17.2247 22.766 17.5283 22.7955 18.3001 22.1752C19.0724 21.5547 25.5241 16.7081 25.6905 16.5623C25.9555 16.3304 26.0215 15.7647 25.6905 15.4987C25.6905 15.4987 17.8744 21.3479 17.6185 21.5844C17.3627 21.8207 16.9646 21.4367 17.0393 20.9345C17.1144 20.4322 17.1697 20.373 18.1624 19.605C19.1551 18.8369 24.7837 14.571 25.0391 14.3825C25.3283 14.1688 25.3352 13.7913 24.8616 13.4576C24.203 12.9935 17.0862 7.9322 16.8482 7.75502C16.6094 7.5777 16.279 7.41659 15.7827 7.77109C15.2864 8.12559 8.98119 12.2898 8.01831 12.9758Z" fill="#316DC2"/>
<path d="M16.9214 23.2113C16.7223 23.0949 13.0925 20.308 10.4559 18.138V22.6624C10.4539 25.9651 19.7589 27.7297 22.8416 23.6697V19.3454C20.9478 20.7763 18.7327 22.4502 18.3001 22.7977C17.5283 23.418 17.2247 23.3885 16.9214 23.2113Z" fill="#316DC2"/>
<path d="M20.8589 18.2504C20.8589 18.2504 22.2425 18.9459 22.3409 21.745L21.6706 21.5602L21.1344 22.6994C20.9075 19.6344 19.672 19.1899 19.672 19.1899L20.8589 18.2504Z" fill="#98B8E6"/>
</svg>
